<?xml version="1.0" standalone="no"?><!DOCTYPE svg PUBLIC "-//W3C//DTD SVG 1.1//EN" "http://www.w3.org/Graphics/SVG/1.1/DTD/svg11.dtd"><svg t="1620189783898" class="icon" viewBox="0 0 1024 1024" version="1.1" xmlns="http://www.w3.org/2000/svg" p-id="6420" xmlns:xlink="http://www.w3.org/1999/xlink" width="40" height="40"><defs><style type="text/css"></style></defs><path d="M494.053053 494.295579H134.736842V137.997474a30.181053 30.181053 0 1 1 60.389053 0v295.882105h238.538105V137.997474a30.181053 30.181053 0 0 1 60.389053 0z" fill="" p-id="6421"></path><path d="M315.877053 494.295579a28.537263 28.537263 0 0 1-30.181053-30.181053V131.961263a30.181053 30.181053 0 0 1 60.389053 0v332.126316a28.537263 28.537263 0 0 1-30.208 30.208z" fill="" p-id="6422"></path><path d="M315.877053 956.254316a28.537263 28.537263 0 0 1-30.181053-30.181053V464.087579a30.181053 30.181053 0 0 1 60.389053 0v461.958737a28.537263 28.537263 0 0 1-30.208 30.208z" fill="" p-id="6423"></path><path d="M856.360421 965.308632a28.537263 28.537263 0 0 1-30.181053-30.181053V473.168842a30.181053 30.181053 0 0 1 60.389053 0v461.958737a30.261895 30.261895 0 0 1-30.208 30.181053z" fill="" p-id="6424"></path><path d="M886.568421 542.612211h-259.664842v-253.628632a178.472421 178.472421 0 0 1 178.149053-178.149053H886.568421v431.777685z m-199.410526-60.389053h139.15621V168.205474h-21.126737a117.894737 117.894737 0 0 0-117.76 117.76v196.257684z" fill="" p-id="6425"></path></svg>