<?xml version="1.0" standalone="no"?><!DOCTYPE svg PUBLIC "-//W3C//DTD SVG 1.1//EN" "http://www.w3.org/Graphics/SVG/1.1/DTD/svg11.dtd"><svg t="1593421386934" class="icon" viewBox="0 0 1024 1024" version="1.1" xmlns="http://www.w3.org/2000/svg" p-id="3641" xmlns:xlink="http://www.w3.org/1999/xlink" width="200" height="200"><defs><style type="text/css"></style></defs><path d="M961.92 184h-74.816v-26.112l-25.408-12.224c-5.12-2.496-126.144-60.288-232.064-60.288-49.536 0-89.28 12.608-118.528 37.44-29.248-24.896-68.928-37.504-118.528-37.504-105.856 0-226.944 57.792-232 60.224l-25.408 12.352v26.112H62.08c-16.64 0-30.08 16.512-30.08 36.992v680.704c0 20.416 13.376 36.992 30.08 36.992h899.904c16.576 0 30.016-16.576 30.016-36.992V220.992c0-20.48-13.44-36.992-30.08-36.992z m-114.944 7.488v488.128c-62.08-26.112-226.944-85.312-315.904-21.504V166.08c25.152-23.04 60.416-31.488 98.496-31.488 99.584 0.064 217.408 56.896 217.408 56.896z m-45.376 521.792H537.344c51.648-60.096 179.264-31.232 264.256 0zM392.576 134.656c38.08 0 73.408 8.448 98.496 31.488v492.032c-88.896-63.808-253.76-4.608-315.84 21.504V191.488s117.888-56.832 217.344-56.832z m92.224 578.624H220.544c84.928-31.232 212.736-60.16 264.256 0z m447.104 151.488H92.096V257.92h43.008v504.768H887.04V257.92h44.8v606.848h0.064z m0 0" p-id="3642"></path></svg>