<?xml version="1.0" standalone="no"?><!DOCTYPE svg PUBLIC "-//W3C//DTD SVG 1.1//EN" "http://www.w3.org/Graphics/SVG/1.1/DTD/svg11.dtd"><svg t="1620214615770" class="icon" viewBox="0 0 1067 1024" version="1.1" xmlns="http://www.w3.org/2000/svg" p-id="1948" xmlns:xlink="http://www.w3.org/1999/xlink" width="41.6796875" height="40"><defs><style type="text/css"></style></defs><path d="M955.624 531.472l29.374 66.57 66.545 29.384c13.49 5.957 19.915 21.473 14.586 35.228l-26.284 67.85 26.284 67.85c5.33 13.756-1.095 29.271-14.586 35.228l-66.545 29.385-29.374 66.57c-5.955 13.496-21.465 19.922-35.215 14.592l-67.825-26.295-67.825 26.295c-13.75 5.33-29.26-1.096-35.215-14.592l-29.373-66.57-66.545-29.385c-13.491-5.957-19.916-21.472-14.587-35.228l26.285-67.85-26.285-67.85c-5.329-13.755 1.096-29.27 14.587-35.228l66.545-29.384 29.373-66.57c5.955-13.496 21.465-19.923 35.215-14.592l67.825 26.294 67.825-26.294c13.75-5.331 29.26 1.096 35.215 14.592z m-350.69 302.135c2.94 7.436 8.64 13.772 16.412 17.354l0.479 0.216 77.428 34.19 3.551 8.049H66.9c-16.513 0-29.9-13.387-29.9-29.9v-0.01c0-16.512 13.387-29.9 29.9-29.9h538.034z m247.65-185.915c-45.719 0-82.782 37.076-82.782 82.812s37.063 82.813 82.782 82.813c45.72 0 82.782-37.077 82.782-82.813 0-45.736-37.063-82.812-82.782-82.812z m0 41.406c22.86 0 41.391 18.538 41.391 41.406s-18.531 41.406-41.39 41.406c-22.86 0-41.392-18.538-41.392-41.406s18.532-41.406 41.391-41.406zM803.538 132c66.89 0 121.058 55.11 121.058 123.069l-0.001 230.574-71.274 27.632-78.917-30.595c-15.839-6.14-33.684 1.128-40.763 16.51l-0.211 0.469-34.177 77.457-77.428 34.19c-15.54 6.862-23.022 24.624-17.154 40.508l0.182 0.481 30.46 78.631H158.058C91.193 730.926 37 675.841 37 607.858v-352.79C37 187.11 91.193 132 158.058 132h645.48zM513.012 256.219h-41.399c-22.873 0-41.4 16.489-41.4 36.806 0 20.113 18.183 36.475 40.716 36.8l0.684 0.005h41.4c22.847 0 41.374-16.489 41.374-36.805 0-20.317-18.527-36.806-41.375-36.806z" fill="" p-id="1949"></path></svg>