<?xml version="1.0" standalone="no"?><!DOCTYPE svg PUBLIC "-//W3C//DTD SVG 1.1//EN" "http://www.w3.org/Graphics/SVG/1.1/DTD/svg11.dtd"><svg t="1620189503568" class="icon" viewBox="0 0 1024 1024" version="1.1" xmlns="http://www.w3.org/2000/svg" p-id="5108" xmlns:xlink="http://www.w3.org/1999/xlink" width="40" height="40"><defs><style type="text/css"></style></defs><path d="M918.72 773.76H105.28A73.44 73.44 0 0 1 32 700.32V187.2a73.44 73.44 0 0 1 73.28-73.44h813.44A73.44 73.44 0 0 1 992 187.2v513.12a73.44 73.44 0 0 1-73.28 73.44zM105.28 170.08a17.12 17.12 0 0 0-17.12 17.12v512.96a17.12 17.12 0 0 0 17.12 17.12h813.44a16.96 16.96 0 0 0 17.12-16.96V187.2a17.28 17.28 0 0 0-17.12-17.12H105.28z" fill="" p-id="5109"></path><path d="M61.6 594.88h900.8v56.48H61.6zM483.84 752h56.32v128h-56.32zM339.2 880h345.6a28.16 28.16 0 0 1 28.16 28.16 28.16 28.16 0 0 1-28.16 28.16H339.2a28 28 0 0 1-28-28.32A28 28 0 0 1 339.2 880z" fill="" p-id="5110"></path></svg>